HIERARCHY
ROOT root
{
	OFFSET 0.000000 0.000000 0.000000
	CHANNELS 6 Xposition Yposition Zposition Zrotation Yrotation Xrotation
	JOINT lhip
	{
		OFFSET 0.058581 -0.082280 -0.017664
		CHANNELS 3 Zrotation Yrotation Xrotation
		JOINT lknee
		{
			OFFSET 0.043451 -0.386469 0.008037
			CHANNELS 3 Zrotation Yrotation Xrotation
			JOINT lankle
			{
				OFFSET -0.014790 -0.426874 -0.037428
				CHANNELS 3 Zrotation Yrotation Xrotation
				JOINT ltoe
				{
					OFFSET 0.041054 -0.060286 0.122042
					CHANNELS 3 Zrotation Yrotation Xrotation
					End Site
					{
						OFFSET 0.000000 0.000000 0.000000
					}
				}
			}
		}
	}
	JOINT rhip
	{
		OFFSET -0.060310 -0.090513 -0.013543
		CHANNELS 3 Zrotation Yrotation Xrotation
		JOINT rknee
		{
			OFFSET -0.043257 -0.383688 -0.004843
			CHANNELS 3 Zrotation Yrotation Xrotation
			JOINT rankle
			{
				OFFSET 0.019056 -0.420046 -0.034562
				CHANNELS 3 Zrotation Yrotation Xrotation
				JOINT rtoe
				{
					OFFSET -0.034840 -0.062106 0.130323
					CHANNELS 3 Zrotation Yrotation Xrotation
					End Site
					{
						OFFSET 0.000000 0.000000 0.000000
					}
				}
			}
		}
	}
	JOINT lowerback
	{
		OFFSET 0.004439 0.124404 -0.038385
		CHANNELS 3 Zrotation Yrotation Xrotation
		JOINT upperback
		{
			OFFSET 0.004488 0.137956 0.026820
			CHANNELS 3 Zrotation Yrotation Xrotation
			JOINT chest
			{
				OFFSET -0.002265 0.056032 0.002855
				CHANNELS 3 Zrotation Yrotation Xrotation
				JOINT lowerneck
				{
					OFFSET -0.013390 0.211636 -0.033468
					CHANNELS 3 Zrotation Yrotation Xrotation
					JOINT upperneck
					{
						OFFSET 0.010113 0.088937 0.050410
						CHANNELS 3 Zrotation Yrotation Xrotation
						End Site
						{
							OFFSET 0.000000 0.000000 0.000000
						}
					}
				}
				JOINT lclavicle
				{
					OFFSET 0.071702 0.114000 -0.018898
					CHANNELS 3 Zrotation Yrotation Xrotation
					JOINT lshoulder
					{
						OFFSET 0.122921 0.045205 -0.019046
						CHANNELS 3 Zrotation Yrotation Xrotation
						JOINT lelbow
						{
							OFFSET 0.255332 -0.015649 -0.022946
							CHANNELS 3 Zrotation Yrotation Xrotation
							JOINT lwrist
							{
								OFFSET 0.265709 0.012698 -0.007375
								CHANNELS 3 Zrotation Yrotation Xrotation
								End Site
								{
									OFFSET 0.000000 0.000000 0.000000
								}
							}
						}
					}
				}
				JOINT rclavicle
				{
					OFFSET -0.082954 0.112472 -0.023707
					CHANNELS 3 Zrotation Yrotation Xrotation
					JOINT rshoulder
					{
						OFFSET -0.113228 0.046853 -0.008472
						CHANNELS 3 Zrotation Yrotation Xrotation
						JOINT relbow
						{
							OFFSET -0.260127 -0.014369 -0.031269
							CHANNELS 3 Zrotation Yrotation Xrotation
							JOINT rwrist
							{
								OFFSET -0.269108 0.006794 -0.006027
								CHANNELS 3 Zrotation Yrotation Xrotation
								End Site
								{
									OFFSET 0.000000 0.000000 0.000000
								}
							}
						}
					}
				}
			}
		}
	}
}
MOTION
Frames: 14
Frame Time: 0.033333
2.127503 0.360265 0.890401 -99.088873 -2.024638 110.077328 5.332418 -6.611110 -50.591839 -10.935963 15.298254 42.338264 9.999359 5.508929 -23.942179 0.000000 -0.000000 0.000000 -5.156156 -1.695422 -3.069335 -2.053946 1.273546 51.739296 7.385281 -10.712428 13.396480 0.000000 -0.000000 0.000000 -4.999805 10.340401 26.896300 -0.828144 -0.386316 -4.883904 1.007428 3.449029 0.252832 -1.850769 -8.099418 -22.128959 5.762808 -2.953669 -11.772269 -19.493220 4.850691 2.215986 -49.050575 10.616711 12.200885 -116.437135 -84.690041 136.341862 15.438805 -14.852960 -27.251608 15.698407 6.000156 -2.285756 59.771752 1.744234 16.157012 -72.006394 72.574213 -57.317410 0.071088 15.039398 -10.661701 
2.019288 0.363024 0.879870 -94.649635 -3.898728 109.152712 0.502607 -10.896498 -44.050414 -10.443227 11.819378 46.323014 12.666870 8.765870 -31.169054 0.000000 -0.000000 0.000000 -5.865097 -0.230439 -13.295064 -2.247776 -3.725951 66.873216 6.966812 -9.728724 3.830611 0.000000 -0.000000 0.000000 -4.938854 6.828407 29.368832 -0.274843 -1.702193 -5.914355 0.121152 1.521311 0.058281 0.124305 -6.151744 -25.366982 4.612233 -3.621620 -11.011492 -26.081144 1.194107 1.118966 -46.306504 4.333637 15.918337 20.547084 -88.020690 -3.575845 16.397867 -14.391278 -24.967058 22.615731 5.525626 -1.796014 58.341325 -2.844786 18.037466 -42.477161 62.503441 -31.570007 -2.402845 15.234803 -9.667855 
1.909690 0.364812 0.872076 -89.789012 -4.747412 107.477775 -3.524074 -12.220583 -34.317907 -12.386001 4.833593 46.712321 12.240115 10.811234 -35.060489 0.000000 -0.000000 0.000000 -7.243433 0.052143 -24.885967 -1.208325 -7.365883 78.789163 7.356803 -9.173839 -3.308772 0.000000 -0.000000 0.000000 -4.054357 2.222526 32.554896 0.289626 -1.982782 -7.019347 -0.204327 -0.453761 -0.232053 0.726839 -4.570950 -28.735304 3.863067 -4.293913 -10.063368 -29.636518 -2.483295 0.174714 -46.788291 -2.763148 18.398796 78.107906 -84.520833 -61.199014 17.751173 -13.430064 -23.859045 27.061339 5.081936 -0.688989 56.198347 -6.233023 16.666640 -28.245509 49.564418 -23.460013 -4.943154 14.548040 -8.882866 
1.765518 0.367875 0.869841 -84.005765 -3.059772 105.538716 -4.930177 -8.412696 -18.500410 -13.838317 -7.190339 42.370606 10.268261 10.669468 -37.135676 0.000000 -0.000000 0.000000 -8.058149 -1.057333 -40.778160 -1.302326 -11.165276 87.405258 7.670959 -7.014256 -9.919539 0.000000 -0.000000 0.000000 -1.796357 -4.618167 34.861626 1.070662 -0.636872 -9.288057 0.844005 -2.015897 0.368464 -0.930044 -3.323225 -30.982608 3.212102 -4.290994 -8.932776 -26.694954 -4.489762 -1.234041 -56.456363 -12.980185 20.714198 139.051099 -77.180566 -117.195197 20.324373 -12.417692 -28.212273 26.435731 1.710314 1.278253 54.403326 -12.565080 12.579558 -19.675232 44.178056 -14.880950 -6.387277 15.275233 -6.955777 
1.673749 0.370440 0.873763 -80.907350 -1.379237 105.057034 -2.972198 -6.325193 -8.485370 -13.753977 -14.726441 36.958809 7.200508 9.799717 -35.133136 0.000000 -0.000000 0.000000 -9.173111 -1.705437 -49.583004 -1.939312 -14.224816 87.896928 8.000709 -5.828913 -13.676851 0.000000 -0.000000 0.000000 -0.393145 -8.950138 34.385313 2.089799 0.383215 -9.658092 1.746950 -2.576417 0.517554 -2.523933 -1.997508 -31.223564 2.767452 -3.645052 -9.198491 -23.563137 -4.374452 -2.169465 -61.607107 -18.780890 23.072285 155.548635 -68.817789 -132.202884 21.989636 -11.953286 -33.034260 24.408984 -1.974810 2.537657 52.051396 -17.564444 11.687436 -16.016388 49.323412 -8.038979 -7.385709 17.044138 -7.242213 
1.544207 0.373592 0.884674 -78.796843 1.348958 105.398974 1.323919 -5.315026 4.022669 -11.776631 -23.062029 27.360034 -1.516414 8.642980 -24.114515 0.000000 -0.000000 0.000000 -10.767411 -1.463315 -59.132366 -2.199352 -18.342165 82.513950 7.336853 -4.859121 -17.049911 0.000000 -0.000000 0.000000 2.701222 -12.929597 31.443670 2.699041 1.214527 -9.000732 2.958352 -3.818599 0.726904 -4.499972 0.731662 -30.206856 2.031716 -2.581690 -11.240399 -19.204814 -3.296799 -3.248999 -63.790762 -24.226819 24.469911 164.709860 -56.699723 -138.562567 21.945917 -13.740053 -37.609142 20.021993 -5.811084 5.103924 49.618932 -22.564527 12.016926 -10.127350 57.964503 3.001508 -9.925185 17.800689 -13.314012 
1.408994 0.375731 0.905242 -78.670715 2.950542 105.759029 4.719741 -2.799773 12.705764 -7.563261 -26.359934 19.470266 -13.368952 5.513300 2.125516 0.000000 -0.000000 0.000000 -12.203467 -0.422407 -64.329995 -2.816172 -21.498590 72.425066 6.224115 -1.728065 -18.173716 0.000000 -0.000000 0.000000 4.632924 -15.747547 28.537014 2.706492 1.940555 -6.973608 3.406361 -3.955293 -0.490748 -6.232282 3.750135 -29.416125 1.438020 -3.094366 -12.108488 -16.553989 -1.014422 -4.271668 -62.310711 -25.471206 22.897035 168.160962 -48.078975 -139.835957 19.031879 -16.932684 -36.769707 16.905189 -7.925742 7.797605 49.646677 -24.909737 10.035561 -3.077707 63.157781 12.585519 -11.425337 19.025345 -15.287644 
1.272196 0.376619 0.922037 -79.712912 2.835084 105.714662 4.746046 -1.946654 18.056889 -5.004115 -26.729858 15.414793 -16.964168 5.825490 25.890210 0.000000 -0.000000 0.000000 -13.363864 0.142258 -64.900160 -1.577240 -23.762318 60.533732 6.857204 -0.084827 -17.556896 0.000000 -0.000000 0.000000 4.686220 -17.465334 27.006554 2.532092 2.481165 -4.990148 3.311938 -3.142621 -2.459130 -7.516852 2.859015 -28.085621 2.305489 -1.944130 -12.895608 -15.273315 1.421163 -4.046128 -60.644763 -23.920212 20.982308 168.249492 -46.128684 -140.705379 19.227168 -16.749269 -37.315476 15.291525 -8.497642 9.232329 52.681607 -25.811992 7.936550 -4.404063 66.120150 10.381324 -10.445461 20.368731 -13.594347 
1.138478 0.377772 0.932796 -81.427895 1.929536 104.944040 1.624365 -2.184390 17.087926 -6.060535 -21.513119 26.426316 -13.417706 7.681156 23.295569 0.000000 -0.000000 0.000000 -12.013308 0.486716 -61.736558 -0.710135 -24.523683 51.602719 8.522903 -0.317136 -16.026848 0.000000 -0.000000 0.000000 4.039619 -16.151332 27.675180 2.545468 2.272074 -5.306445 2.888218 -2.664040 -2.849655 -7.987963 1.649783 -28.043135 2.149569 -1.753555 -12.357059 -16.196052 2.735515 -3.477698 -59.390122 -20.516001 19.492916 166.088701 -52.050526 -139.785460 18.538337 -16.077854 -36.718227 17.034534 -8.885667 7.965142 55.153877 -24.433224 7.403845 -15.820978 67.606797 -0.891793 -8.830687 20.222505 -12.574317 
0.974131 0.381664 0.935321 -84.080153 1.525947 103.240535 -0.960438 -2.491538 9.693882 -7.109451 -12.223558 48.217255 -8.394959 8.066732 20.009963 0.000000 -0.000000 0.000000 -6.809967 1.673619 -54.694191 -0.300897 -22.648124 49.387878 4.965745 -1.085347 -15.675090 0.000000 -0.000000 0.000000 3.408885 -11.979358 29.834394 2.999101 2.316169 -5.540678 2.471122 -2.776275 -3.104332 -7.869709 1.343527 -29.880703 0.402942 -2.386278 -10.387455 -20.003097 2.215122 -2.066585 -57.798396 -14.784238 17.058546 156.998560 -65.945831 -131.187308 15.724749 -16.134298 -28.846287 22.438819 -6.626768 4.616018 55.940913 -19.443631 7.851808 -32.253989 66.012151 -16.919138 -6.279850 19.744987 -11.741638 
0.844430 0.387359 0.927482 -86.651441 2.133315 102.036044 -0.643604 -2.949951 0.046404 -7.166164 -5.404607 66.105171 -4.139766 7.800729 13.314380 0.000000 -0.000000 0.000000 -1.816264 4.114409 -47.503325 -0.143746 -19.231120 52.486142 -2.834449 -5.306215 -21.509491 0.000000 -0.000000 0.000000 2.908744 -8.317472 31.207539 3.553275 2.681387 -5.838083 2.372797 -2.341429 -2.711793 -7.302623 1.407456 -31.870901 -1.061346 -2.710136 -8.001763 -22.953861 1.056401 -0.841093 -57.004082 -9.817401 15.283093 125.851090 -77.716990 -102.417450 14.842485 -15.293104 -26.715396 26.602792 -1.985028 2.865719 55.071426 -13.087446 9.927712 -41.949218 63.407847 -26.067230 -5.253363 19.264022 -12.207150 
0.717899 0.394980 0.917621 -89.273150 2.722151 101.593484 1.873262 -4.781711 -13.263844 -5.184284 2.106554 81.037909 -0.656951 8.659838 4.767321 0.000000 -0.000000 0.000000 2.233718 7.243261 -38.894649 0.018235 -15.226313 54.132406 -5.696491 -10.218651 -29.185234 0.000000 -0.000000 0.000000 2.229699 -4.565557 31.596985 4.158468 2.670895 -5.955706 2.309221 -1.263843 -2.448493 -6.493996 1.668023 -33.556684 -2.547119 -3.207485 -5.735722 -24.899067 0.062489 0.092057 -55.862517 -4.775276 13.378342 49.761166 -77.352079 -29.868373 14.424446 -15.051482 -24.634281 28.830260 3.957947 2.050116 53.359522 -5.734984 13.227447 -51.764111 63.207655 -34.554858 -5.388335 19.577839 -13.634450 
0.591214 0.400619 0.912265 -91.647520 2.220087 102.032927 5.511289 -6.212376 -29.311089 -2.999796 8.310180 90.330785 1.710170 9.267973 -2.332056 0.000000 -0.000000 0.000000 4.585719 7.915351 -28.414883 1.467729 -10.204197 51.589052 -5.297981 -12.098807 -34.757064 0.000000 -0.000000 0.000000 1.304093 -0.639655 30.997594 4.205159 1.526401 -6.355399 2.079197 -0.378345 -2.761610 -5.294746 1.799715 -33.953440 -3.337603 -2.965989 -4.079237 -24.358486 0.880922 1.585717 -53.937287 2.726419 10.320438 17.694973 -74.657044 1.576601 13.145310 -15.093638 -21.535077 26.117643 8.228684 0.782938 54.349083 1.956438 15.276848 -69.622481 68.889246 -49.943565 -6.465344 20.426697 -16.755863 
0.458136 0.402337 0.912511 -94.412416 0.400361 102.835524 8.160455 -5.670625 -44.231773 -1.440515 13.257328 91.225990 2.274010 8.153864 -8.353020 0.000000 -0.000000 0.000000 4.291937 4.237363 -16.898923 2.313598 -3.722741 46.375696 -2.898718 -9.346455 -35.765615 0.000000 -0.000000 0.000000 -0.051891 4.001482 29.175921 3.213748 -0.043380 -7.148292 1.229244 0.792206 -2.608156 -3.910855 0.693560 -32.273087 -2.493479 -3.362728 -4.146057 -20.660134 3.307723 3.592872 -51.478741 12.454558 8.514547 -25.646650 -80.232394 46.135072 13.611631 -15.658769 -24.900692 19.007460 9.328414 -2.168490 60.074218 8.089953 15.966964 -111.868266 71.346878 -89.846915 -7.097776 20.878089 -18.654861 
